<svg width="48" height="42" viewBox="0 0 48 42" fill="none" xmlns="http://www.w3.org/2000/svg">
<path d="M24.0001 9.33333V0H0.666748V42H47.3334V9.33333H24.0001ZM10.0001 37.3333H5.33342V32.6667H10.0001V37.3333ZM10.0001 28H5.33342V23.3333H10.0001V28ZM10.0001 18.6667H5.33342V14H10.0001V18.6667ZM10.0001 9.33333H5.33342V4.66667H10.0001V9.33333ZM19.3334 37.3333H14.6667V32.6667H19.3334V37.3333ZM19.3334 28H14.6667V23.3333H19.3334V28ZM19.3334 18.6667H14.6667V14H19.3334V18.6667ZM19.3334 9.33333H14.6667V4.66667H19.3334V9.33333ZM42.6668 37.3333H24.0001V32.6667H28.6667V28H24.0001V23.3333H28.6667V18.6667H24.0001V14H42.6668V37.3333ZM38.0001 18.6667H33.3334V23.3333H38.0001V18.6667ZM38.0001 28H33.3334V32.6667H38.0001V28Z" fill="#008E8F"/>
</svg>
