<svg width="24" height="24" viewBox="0 0 24 24" fill="none" xmlns="http://www.w3.org/2000/svg">
<path d="M1 6.66667C1 5.95942 1.28401 5.28115 1.78954 4.78105C2.29507 4.28095 2.98072 4 3.69565 4H19.8696C20.5845 4 21.2701 4.28095 21.7757 4.78105C22.2812 5.28115 22.5652 5.95942 22.5652 6.66667V17.3333C22.5652 18.0406 22.2812 18.7189 21.7757 19.219C21.2701 19.719 20.5845 20 19.8696 20H3.69565C2.98072 20 2.29507 19.719 1.78954 19.219C1.28401 18.7189 1 18.0406 1 17.3333V6.66667ZM3.69565 5.33333C3.33819 5.33333 2.99536 5.47381 2.7426 5.72386C2.48983 5.97391 2.34783 6.31304 2.34783 6.66667V6.956L11.7826 12.556L21.2174 6.956V6.66667C21.2174 6.31304 21.0754 5.97391 20.8226 5.72386C20.5699 5.47381 20.227 5.33333 19.8696 5.33333H3.69565ZM21.2174 8.51067L14.8718 12.2773L21.2174 16.14V8.51067ZM21.1716 17.6787L13.5698 13.0507L11.7826 14.1107L9.99539 13.0507L2.39365 17.6773C2.47024 17.9611 2.63938 18.2118 2.87481 18.3907C3.11024 18.5696 3.39879 18.6666 3.69565 18.6667H19.8696C20.1663 18.6667 20.4547 18.5699 20.6901 18.3913C20.9255 18.2126 21.0947 17.9621 21.1716 17.6787ZM2.34783 16.14L8.69339 12.2773L2.34783 8.51067V16.14Z" fill="white"/>
</svg>
