<svg width="24" height="24" viewBox="0 0 24 24" fill="none" xmlns="http://www.w3.org/2000/svg">
<path d="M12 4C9.829 4 9.556 4.01 8.703 4.048C7.85 4.088 7.269 4.222 6.76 4.42C6.22609 4.62082 5.74249 4.93583 5.343 5.343C4.93608 5.7427 4.62111 6.22624 4.42 6.76C4.222 7.268 4.087 7.85 4.048 8.7C4.01 9.555 4 9.827 4 12.001C4 14.173 4.01 14.445 4.048 15.298C4.088 16.15 4.222 16.731 4.42 17.24C4.625 17.766 4.898 18.212 5.343 18.657C5.787 19.102 6.233 19.376 6.759 19.58C7.269 19.778 7.849 19.913 8.701 19.952C9.555 19.99 9.827 20 12 20C14.173 20 14.444 19.99 15.298 19.952C16.149 19.912 16.732 19.778 17.241 19.58C17.7746 19.3791 18.2578 19.0641 18.657 18.657C19.102 18.212 19.375 17.766 19.58 17.24C19.777 16.731 19.912 16.15 19.952 15.298C19.99 14.445 20 14.173 20 12C20 9.827 19.99 9.555 19.952 8.701C19.912 7.85 19.777 7.268 19.58 6.76C19.3789 6.22623 19.0639 5.74268 18.657 5.343C18.2576 4.93568 17.774 4.62065 17.24 4.42C16.73 4.222 16.148 4.087 15.297 4.048C14.443 4.01 14.172 4 11.998 4H12.001H12ZM11.283 5.442H12.001C14.137 5.442 14.39 5.449 15.233 5.488C16.013 5.523 16.437 5.654 16.719 5.763C17.092 5.908 17.359 6.082 17.639 6.362C17.919 6.642 18.092 6.908 18.237 7.282C18.347 7.563 18.477 7.987 18.512 8.767C18.551 9.61 18.559 9.863 18.559 11.998C18.559 14.133 18.551 14.387 18.512 15.23C18.477 16.01 18.346 16.433 18.237 16.715C18.1087 17.0624 17.904 17.3764 17.638 17.634C17.358 17.914 17.092 18.087 16.718 18.232C16.438 18.342 16.014 18.472 15.233 18.508C14.39 18.546 14.137 18.555 12.001 18.555C9.865 18.555 9.611 18.546 8.768 18.508C7.988 18.472 7.565 18.342 7.283 18.232C6.9355 18.1039 6.62113 17.8996 6.363 17.634C6.09675 17.376 5.89172 17.0617 5.763 16.714C5.654 16.433 5.523 16.009 5.488 15.229C5.45 14.386 5.442 14.133 5.442 11.996C5.442 9.86 5.45 9.608 5.488 8.765C5.524 7.985 5.654 7.561 5.764 7.279C5.909 6.906 6.083 6.639 6.363 6.359C6.643 6.079 6.909 5.906 7.283 5.761C7.565 5.651 7.988 5.521 8.768 5.485C9.506 5.451 9.792 5.441 11.283 5.44V5.442ZM16.271 6.77C16.1449 6.77 16.0201 6.79483 15.9036 6.84308C15.7872 6.89132 15.6813 6.96203 15.5922 7.05118C15.503 7.14032 15.4323 7.24615 15.3841 7.36262C15.3358 7.4791 15.311 7.60393 15.311 7.73C15.311 7.85607 15.3358 7.9809 15.3841 8.09738C15.4323 8.21385 15.503 8.31968 15.5922 8.40882C15.6813 8.49797 15.7872 8.56868 15.9036 8.61692C16.0201 8.66517 16.1449 8.69 16.271 8.69C16.5256 8.69 16.7698 8.58886 16.9498 8.40882C17.1299 8.22879 17.231 7.98461 17.231 7.73C17.231 7.47539 17.1299 7.23121 16.9498 7.05118C16.7698 6.87114 16.5256 6.77 16.271 6.77ZM12.001 7.892C11.4561 7.8835 10.9149 7.98349 10.409 8.18614C9.90306 8.3888 9.44251 8.69007 9.05415 9.07242C8.66579 9.45478 8.35736 9.91057 8.14684 10.4133C7.93632 10.916 7.8279 11.4555 7.8279 12.0005C7.8279 12.5455 7.93632 13.085 8.14684 13.5877C8.35736 14.0904 8.66579 14.5462 9.05415 14.9286C9.44251 15.3109 9.90306 15.6122 10.409 15.8149C10.9149 16.0175 11.4561 16.1175 12.001 16.109C13.0795 16.0922 14.1082 15.6519 14.865 14.8833C15.6217 14.1146 16.0459 13.0792 16.0459 12.0005C16.0459 10.9218 15.6217 9.88641 14.865 9.11775C14.1082 8.34909 13.0795 7.90883 12.001 7.892ZM12.001 9.333C12.7083 9.333 13.3867 9.61399 13.8869 10.1141C14.387 10.6143 14.668 11.2927 14.668 12C14.668 12.7073 14.387 13.3857 13.8869 13.8859C13.3867 14.386 12.7083 14.667 12.001 14.667C11.2937 14.667 10.6153 14.386 10.1151 13.8859C9.61499 13.3857 9.334 12.7073 9.334 12C9.334 11.2927 9.61499 10.6143 10.1151 10.1141C10.6153 9.61399 11.2937 9.333 12.001 9.333Z" fill="white"/>
</svg>
