<svg width="24" height="24" viewBox="0 0 24 24" fill="none" xmlns="http://www.w3.org/2000/svg">
<path d="M7.69565 20H4V9.09091H7.69565V20ZM5.84857 7.63636C4.82635 7.63636 4 6.82109 4 5.81745C4 4.81382 4.82783 4 5.84857 4C6.86709 4 7.69565 4.81527 7.69565 5.81745C7.69565 6.82109 6.86709 7.63636 5.84857 7.63636ZM21 20H17.447V14.6909C17.447 13.4247 17.4226 11.7964 15.5999 11.7964C13.7499 11.7964 13.4653 13.1753 13.4653 14.5993V20H9.91304V9.08291H13.3234V10.5745H13.3714C13.846 9.71636 15.0057 8.81164 16.7352 8.81164C20.3348 8.81164 21 11.0727 21 14.0124V20Z" fill="white"/>
</svg>
