<svg width="127" height="36" viewBox="0 0 127 36" fill="none" xmlns="http://www.w3.org/2000/svg">
<path d="M61.7218 24.1117C60.9512 23.6749 60.3166 23.0319 59.8888 22.2545C59.4482 21.4641 59.2281 20.5835 59.2285 19.6128C59.2285 18.6174 59.4424 17.7245 59.8703 16.9341C60.2823 16.1597 60.9052 15.5188 61.6665 15.0861C62.4356 14.6442 63.3039 14.4232 64.2712 14.4232C65.7348 14.4232 66.9509 14.9832 67.9194 16.1033C68.0408 16.2352 68.1069 16.4089 68.104 16.5884C68.104 16.8625 67.9676 17.0927 67.6949 17.2791C67.5687 17.3674 67.4179 17.4132 67.2641 17.4099C67.1258 17.4111 66.989 17.3816 66.8635 17.3234C66.7379 17.2653 66.6268 17.1799 66.538 17.0736C66.2564 16.758 65.9106 16.5067 65.524 16.3366C65.1251 16.1748 64.6977 16.0954 64.2675 16.1033C63.3125 16.1033 62.5371 16.4236 61.9415 17.0643C61.3459 17.705 61.048 18.5545 61.048 19.6128C61.048 20.2848 61.1877 20.8851 61.4671 21.4139C61.7327 21.9298 62.1379 22.3602 62.6362 22.6557C63.1591 22.9597 63.7549 23.1146 64.3591 23.1038C65.203 23.1038 65.8854 22.8859 66.4063 22.4502C66.6418 22.2761 66.8713 22.1889 67.0949 22.1885C67.2703 22.1891 67.4405 22.2484 67.5786 22.357C67.8144 22.5557 67.9324 22.7798 67.9324 23.0291C67.9313 23.1239 67.9109 23.2175 67.8725 23.3041C67.8341 23.3907 67.7785 23.4685 67.709 23.5328C66.8155 24.3673 65.6989 24.7843 64.3591 24.7839C63.3787 24.7839 62.4978 24.5598 61.7163 24.1117" fill="white"/>
<path d="M79.0858 14.7404C79.2587 14.9151 79.3461 15.1447 79.3461 15.4311V23.7574C79.3497 23.8822 79.3285 24.0065 79.2839 24.123C79.2392 24.2396 79.1719 24.3461 79.0858 24.4363C78.9527 24.5734 78.7817 24.6673 78.5949 24.706C78.4081 24.7446 78.214 24.7262 78.0377 24.6532C77.8614 24.5801 77.7109 24.4557 77.6058 24.296C77.5007 24.1363 77.4456 23.9487 77.4478 23.7574V23.5519C77.0444 23.9546 76.5627 24.2698 76.0326 24.4777C75.4756 24.6976 74.8817 24.8084 74.2832 24.8042C73.427 24.8042 72.6579 24.6176 71.9757 24.2444C71.293 23.8705 70.7363 23.3019 70.3758 22.6106C69.9915 21.895 69.7991 21.0332 69.7986 20.0251V15.4305C69.7954 15.3034 69.8176 15.177 69.8638 15.0586C69.9101 14.9403 69.9795 14.8324 70.0679 14.7414C70.1564 14.6504 70.2621 14.5781 70.3789 14.5287C70.4956 14.4793 70.6211 14.4539 70.7478 14.4539C70.8745 14.4539 70.9999 14.4793 71.1167 14.5287C71.2335 14.5781 71.3392 14.6504 71.4277 14.7414C71.5161 14.8324 71.5855 14.9403 71.6318 15.0586C71.678 15.177 71.7002 15.3034 71.6969 15.4305V20.0226C71.6969 21.0303 71.9669 21.7915 72.5067 22.3063C73.0466 22.8211 73.763 23.0803 74.6561 23.084C75.1488 23.0905 75.6363 22.9819 76.0799 22.7668C76.4845 22.5759 76.8313 22.2807 77.0848 21.9113C77.3259 21.5532 77.4525 21.1299 77.4478 20.6978V15.4305C77.4423 15.3028 77.4635 15.1754 77.51 15.0565C77.5565 14.9375 77.6274 14.8296 77.718 14.7398C77.8078 14.6534 77.914 14.5858 78.0302 14.541C78.1464 14.4961 78.2704 14.475 78.3948 14.4787C78.682 14.4787 78.9117 14.5657 79.084 14.7398" fill="white"/>
<path d="M82.7423 24.2703C82.301 23.9612 81.9558 23.5333 81.7467 23.0359C81.5041 22.4734 81.3835 21.8655 81.3928 21.2527V11.063C81.3896 10.9384 81.4114 10.8144 81.4567 10.6983C81.502 10.5823 81.5701 10.4765 81.6568 10.3872C81.7435 10.298 81.8472 10.227 81.9617 10.1786C82.0762 10.1301 82.1993 10.1052 82.3235 10.1052C82.4478 10.1052 82.5708 10.1301 82.6853 10.1786C82.7998 10.227 82.9035 10.298 82.9903 10.3872C83.077 10.4765 83.145 10.5823 83.1904 10.6983C83.2357 10.8144 83.2574 10.9384 83.2542 11.063V21.2552C83.2542 21.7156 83.341 22.0952 83.5145 22.394C83.688 22.6927 83.9114 22.8421 84.1846 22.8421H84.6498C84.7636 22.8382 84.8769 22.8596 84.9815 22.9049C85.0861 22.9501 85.1794 23.018 85.2547 23.1038C85.4141 23.29 85.4972 23.53 85.4873 23.7753C85.4883 23.9079 85.4566 24.0387 85.395 24.156C85.3334 24.2733 85.2437 24.3734 85.1341 24.4474C84.8986 24.6223 84.5946 24.7096 84.2221 24.7092H84.1846C83.6703 24.715 83.1667 24.5618 82.7423 24.2703Z" fill="white"/>
<path d="M91.3217 23.1038C91.4812 23.2901 91.5643 23.53 91.5543 23.7753C91.5574 23.9035 91.5313 24.0306 91.478 24.1471C91.4247 24.2636 91.3456 24.3663 91.2467 24.4475C91.0416 24.6224 90.778 24.7096 90.456 24.7092H90.1212C89.5316 24.7147 88.953 24.5492 88.4549 24.2327C87.9519 23.9152 87.5438 23.4674 87.2735 22.9365C86.9813 22.3652 86.8334 21.7306 86.8427 21.0886V16.4798H85.9868C85.7548 16.4901 85.5278 16.4098 85.3536 16.2557C85.2755 16.1853 85.2134 16.0988 85.1716 16.0021C85.1299 15.9053 85.1095 15.8007 85.1118 15.6953C85.107 15.5841 85.1261 15.4732 85.1678 15.3701C85.2095 15.267 85.2729 15.1742 85.3536 15.0978C85.5281 14.9442 85.7549 14.8642 85.9868 14.8744H86.8427V12.1833C86.8395 12.0587 86.8613 11.9347 86.9066 11.8186C86.9519 11.7026 87.02 11.5968 87.1067 11.5075C87.1935 11.4183 87.2971 11.3473 87.4116 11.2989C87.5261 11.2504 87.6492 11.2255 87.7734 11.2255C87.8977 11.2255 88.0207 11.2504 88.1352 11.2989C88.2497 11.3473 88.3534 11.4183 88.4402 11.5075C88.5269 11.5968 88.5949 11.7026 88.6403 11.8186C88.6856 11.9347 88.7073 12.0587 88.7041 12.1833V14.8713H90.2855C90.5172 14.861 90.744 14.9411 90.9181 15.0948C90.9989 15.171 91.0624 15.2639 91.1042 15.367C91.146 15.4701 91.1652 15.581 91.1605 15.6922C91.1627 15.7976 91.1422 15.9023 91.1004 15.999C91.0585 16.0957 90.9963 16.1823 90.9181 16.2527C90.7442 16.4068 90.5174 16.4871 90.2855 16.4767H88.7041V21.0873C88.7041 21.5856 88.8405 22.0025 89.1133 22.3378C89.3861 22.6732 89.7213 22.8413 90.1188 22.8421H90.7507C90.8588 22.841 90.9657 22.8639 91.0639 22.9091C91.1621 22.9544 91.2491 23.0209 91.3187 23.1038" fill="white"/>
<path d="M93.2227 12.4728C93.0263 12.2718 92.9054 12.0087 92.8805 11.7284C92.8556 11.448 92.9283 11.1677 93.0863 10.9351C93.2442 10.7024 93.4776 10.5318 93.7467 10.4523C94.0159 10.3727 94.3042 10.3892 94.5626 10.4988C94.821 10.6084 95.0337 10.8044 95.1643 11.0535C95.2949 11.3026 95.3354 11.5894 95.2791 11.8652C95.2227 12.1409 95.0728 12.3885 94.855 12.5659C94.6371 12.7433 94.3648 12.8395 94.0842 12.8382C93.9229 12.8401 93.7629 12.8088 93.6141 12.7462C93.4653 12.6837 93.3308 12.5913 93.219 12.4746M93.4036 24.4401C93.3148 24.3514 93.2451 24.2454 93.1986 24.1286C93.1522 24.0118 93.13 23.8868 93.1335 23.7611V15.4496C93.128 15.322 93.1492 15.1946 93.1957 15.0757C93.2422 14.9567 93.313 14.8488 93.4036 14.759C93.4935 14.6726 93.5997 14.605 93.7159 14.5602C93.8321 14.5154 93.956 14.4942 94.0805 14.4979C94.3656 14.4979 94.5951 14.5849 94.769 14.759C94.943 14.933 95.0297 15.1633 95.0293 15.4496V23.7568C95.033 23.8816 95.0119 24.006 94.9672 24.1225C94.9225 24.2391 94.8551 24.3456 94.769 24.4358C94.5836 24.6098 94.3391 24.7066 94.0851 24.7066C93.8311 24.7066 93.5866 24.6098 93.4011 24.4358" fill="white"/>
<path d="M105.847 14.9367C105.933 15.0662 105.979 15.219 105.977 15.3749C105.974 15.4989 105.942 15.6205 105.884 15.7298L101.939 24.0716C101.752 24.483 101.467 24.6888 101.083 24.6888C100.899 24.6965 100.717 24.6478 100.561 24.5493C100.424 24.4555 100.301 24.2966 100.192 24.0728L96.2437 15.7298C96.1929 15.6251 96.1674 15.5099 96.1693 15.3934C96.1693 15.0577 96.343 14.8026 96.6905 14.6281C96.8106 14.564 96.9452 14.5319 97.0812 14.5349C97.2334 14.5356 97.3824 14.5783 97.5119 14.6583C97.6492 14.7394 97.7595 14.8595 97.8288 15.0034L101.067 22.0039L104.267 15.0034C104.338 14.8578 104.451 14.7374 104.592 14.6583C104.73 14.5778 104.888 14.5352 105.048 14.5349C105.197 14.5317 105.344 14.5636 105.479 14.6281C105.629 14.6941 105.758 14.801 105.851 14.9367" fill="white"/>
<path d="M108.489 24.121C107.72 23.6924 107.088 23.0548 106.666 22.2817C106.231 21.4999 106.014 20.61 106.014 19.6122C106.014 18.6041 106.231 17.7079 106.666 16.9236C107.089 16.1509 107.721 15.5137 108.489 15.0855C109.271 14.6436 110.158 14.4226 111.151 14.4226C112.131 14.4226 113.009 14.6436 113.784 15.0855C114.55 15.5174 115.181 16.1537 115.608 16.9236C116.048 17.7083 116.268 18.6045 116.268 19.6122C116.268 20.6076 116.051 21.4974 115.617 22.2817C115.196 23.0526 114.567 23.6896 113.803 24.1204C113.027 24.5623 112.143 24.7833 111.151 24.7833C110.159 24.7833 109.271 24.5625 108.489 24.121ZM112.851 22.6557C113.351 22.3617 113.758 21.9326 114.026 21.4176C114.312 20.8608 114.455 20.2419 114.445 19.6159C114.455 18.987 114.311 18.3653 114.026 17.805C113.761 17.2839 113.354 16.8491 112.851 16.5514C112.332 16.2576 111.745 16.1033 111.149 16.1033C110.552 16.1033 109.965 16.2576 109.446 16.5514C108.944 16.8501 108.535 17.2831 108.264 17.8019C107.972 18.36 107.824 18.9826 107.833 19.6128C107.823 20.2402 107.972 20.8599 108.264 21.4145C108.536 21.9295 108.945 22.359 109.446 22.6557C109.965 22.9495 110.552 23.1038 111.149 23.1038C111.745 23.1038 112.332 22.9495 112.851 22.6557Z" fill="white"/>
<path d="M55.4111 20.8991C55.2935 20.787 55.2001 20.652 55.1366 20.5023C55.0731 20.3526 55.0408 20.1914 55.0419 20.0288C55.0397 19.8634 55.0713 19.6993 55.1348 19.5466C55.1983 19.394 55.2923 19.256 55.4111 19.1412C55.5237 19.0248 55.6586 18.9323 55.8075 18.8692C55.9565 18.806 56.1166 18.7734 56.2784 18.7734C56.4401 18.7734 56.6002 18.806 56.7492 18.8692C56.8982 18.9323 57.033 19.0248 57.1457 19.1412C57.3786 19.3735 57.5103 19.6889 57.5119 20.0184C57.5135 20.3478 57.3849 20.6645 57.1543 20.8991C57.0406 21.0153 56.905 21.1077 56.7553 21.1707C56.6057 21.2337 56.445 21.2662 56.2827 21.2662C56.1203 21.2662 55.9597 21.2337 55.81 21.1707C55.6603 21.1077 55.5247 21.0153 55.4111 20.8991Z" fill="white"/>
<path d="M52.0257 15.7163C52.6771 16.4125 53.0028 17.3834 53.0028 18.6289V23.8679C53.0067 23.9909 52.9861 24.1133 52.9423 24.2282C52.8984 24.3431 52.8322 24.4481 52.7475 24.537C52.6168 24.6719 52.4487 24.7644 52.2651 24.8024C52.0814 24.8404 51.8905 24.8222 51.7173 24.7501C51.5441 24.6779 51.3964 24.5553 51.2935 24.398C51.1906 24.2407 51.1372 24.056 51.1402 23.8679V18.6289C51.1402 17.8846 50.9546 17.3198 50.5834 16.9347C50.2121 16.5495 49.716 16.3567 49.0949 16.3563C48.4619 16.3563 47.9413 16.5761 47.5332 17.0155C47.125 17.455 46.9211 18.0171 46.9215 18.7018V23.8679C46.9254 23.9909 46.9048 24.1133 46.861 24.2282C46.8171 24.3431 46.7509 24.4481 46.6662 24.537C46.5355 24.6719 46.3674 24.7644 46.1837 24.8024C46 24.8404 45.8092 24.8222 45.636 24.7501C45.4627 24.6779 45.3151 24.5553 45.2122 24.398C45.1093 24.2407 45.0559 24.056 45.0589 23.8679V18.6289C45.0589 17.8846 44.8743 17.3198 44.5051 16.9347C44.1359 16.5495 43.6381 16.3567 43.0117 16.3563C42.366 16.3563 41.8395 16.5761 41.4322 17.0155C41.0248 17.455 40.8216 18.0171 40.8224 18.7018V23.8679C40.8263 23.9909 40.8057 24.1133 40.7618 24.2282C40.718 24.3431 40.6518 24.4481 40.567 24.537C40.4363 24.6718 40.2682 24.7642 40.0845 24.8022C39.9008 24.8401 39.7099 24.8219 39.5367 24.7498C39.3635 24.6777 39.2158 24.5551 39.1128 24.3979C39.0099 24.2406 38.9563 24.056 38.9592 23.8679V15.7163C38.9535 15.5908 38.9742 15.4655 39.0199 15.3486C39.0656 15.2316 39.1352 15.1256 39.2244 15.0373C39.3129 14.9523 39.4174 14.8858 39.5318 14.8417C39.6462 14.7976 39.7683 14.7768 39.8908 14.7806C40.0112 14.7759 40.1313 14.7953 40.2441 14.8377C40.3569 14.8801 40.4602 14.9446 40.5479 15.0275C40.7214 15.1993 40.82 15.4329 40.8224 15.6774C41.1457 15.3559 41.5309 15.1038 41.9546 14.9367C42.408 14.7571 42.8916 14.667 43.3791 14.6713C43.9579 14.6619 44.5307 14.7905 45.0503 15.0466C45.5394 15.2941 45.9573 15.663 46.2644 16.1181C46.6342 15.665 47.1028 15.303 47.6341 15.0602C48.207 14.7982 48.8308 14.6668 49.4604 14.6756C50.5196 14.6756 51.3747 15.0235 52.0257 15.7194" fill="white"/>
<path d="M14.8872 12.8944C16.2526 11.9797 18.0869 12.3315 18.9847 13.6795C19.308 14.164 19.4777 14.7352 19.4714 15.3182C19.4807 16.4366 19.2358 17.4112 19.8788 18.3765C20.5218 19.3419 21.5131 19.4875 22.5395 19.9258C23.0789 20.1427 23.5401 20.5184 23.8624 21.0034C24.7602 22.352 24.3818 24.1864 23.017 25.1011C21.6522 26.0159 19.8173 25.6641 18.9195 24.316C18.596 23.8317 18.4263 23.2603 18.4328 22.6773C18.4235 21.5583 18.6684 20.5843 18.0254 19.6184C17.3824 18.6524 16.3911 18.5074 15.3647 18.0698C14.8253 17.8526 14.364 17.4767 14.0418 16.9915C13.144 15.6435 13.5224 13.8091 14.8872 12.8944ZM23.2896 13.1548C24.6544 12.2401 26.4893 12.5919 27.3871 13.9399C27.7107 14.4243 27.8806 14.9956 27.8744 15.5787C27.8836 16.6971 27.6387 17.6717 28.2817 18.637C28.9248 19.6023 29.9161 19.748 30.9424 20.1862C31.4817 20.4034 31.9429 20.779 32.2654 21.2639C33.1632 22.6125 32.7847 24.4469 31.4199 25.3616C30.0551 26.2763 28.219 25.9233 27.3206 24.5765C26.9975 24.0919 26.8281 23.5207 26.8345 22.9378C26.8246 21.8194 27.0695 20.8448 26.4265 19.8788C25.7835 18.9129 24.7922 18.7678 23.7658 18.3302C23.2265 18.1129 22.7653 17.737 22.4429 17.252C21.5451 15.9039 21.9235 14.0696 23.289 13.1548M10.0987 22.4014C10.1079 23.0081 10.2962 23.5983 10.6399 24.0976C10.9835 24.5969 11.4671 24.9827 12.0293 25.2064C12.5916 25.43 13.2073 25.4814 13.7987 25.354C14.3901 25.2266 14.9305 24.9262 15.3516 24.4907C15.7728 24.0552 16.0557 23.5043 16.1647 22.9075C16.2737 22.3107 16.2038 21.6949 15.9639 21.138C15.7239 20.581 15.3248 20.108 14.8168 19.7786C14.3089 19.4492 13.7149 19.2783 13.1102 19.2875C12.2993 19.3002 11.5265 19.6353 10.9619 20.2192C10.3972 20.8031 10.0867 21.588 10.0987 22.4014Z" fill="white"/>
</svg>
