<svg width="131" height="31" viewBox="0 0 131 31" fill="none" xmlns="http://www.w3.org/2000/svg">
<g clip-path="url(#clip0_835_82188)">
<mask id="mask0_835_82188" style="mask-type:luminance" maskUnits="userSpaceOnUse" x="0" y="0" width="32" height="31">
<path d="M4.91089 18.6533C4.90217 18.0692 5.06683 17.4957 5.38405 17.0051C5.70128 16.5146 6.15683 16.1291 6.69311 15.8975C7.22938 15.6658 7.82231 15.5984 8.39691 15.7036C8.97152 15.8089 9.50201 16.0822 9.9213 16.489C10.3406 16.8957 10.6299 17.4177 10.7526 17.9888C10.8753 18.56 10.8258 19.1547 10.6106 19.6977C10.3953 20.2408 10.0238 20.7078 9.54317 21.0398C9.06249 21.3718 8.49417 21.5538 7.91007 21.5628H7.86408C7.08848 21.5625 6.34411 21.2572 5.7916 20.7129C5.23909 20.1686 4.92277 19.4289 4.91089 18.6533ZM21.5504 20.7485C21.2382 20.2817 21.0745 19.7314 21.0807 19.1698C21.0716 18.0924 21.3068 17.1538 20.6871 16.2241C20.0674 15.2945 19.1084 15.1536 18.1169 14.7321C17.5944 14.5238 17.1475 14.1617 16.8352 13.6939C15.9682 12.3956 16.3339 10.6284 17.6525 9.74779C18.9711 8.86719 20.7437 9.20496 21.6107 10.5017C21.9231 10.9682 22.0872 11.5183 22.0811 12.0797C22.0902 13.1571 21.855 14.0958 22.4747 15.0254C23.0944 15.955 24.0535 16.0967 25.0456 16.5174C25.5668 16.7266 26.0127 17.0881 26.3251 17.5549C27.1921 18.8539 26.8265 20.6204 25.5078 21.501C25.0321 21.8207 24.472 21.9915 23.8989 21.9918C23.4353 21.9941 22.9783 21.8818 22.5686 21.6649C22.1589 21.448 21.8091 21.1332 21.5504 20.7485ZM13.4319 20.4952C13.1199 20.0286 12.9561 19.4785 12.9622 18.9172C12.9532 17.8391 13.1884 16.9012 12.5687 15.9708C11.9489 15.0405 10.9899 14.9002 9.99773 14.4788C9.47674 14.2696 9.03124 13.9077 8.7198 13.4406C7.85202 12.1423 8.21843 10.3751 9.53708 9.49447C10.8557 8.61386 12.6282 8.95238 13.4953 10.2484C13.808 10.7148 13.972 11.2649 13.9657 11.8264C13.9748 12.9038 13.7395 13.8424 14.3593 14.7728C14.979 15.7032 15.938 15.8434 16.9295 16.2641C17.4518 16.4726 17.8987 16.8346 18.2112 17.3023C19.079 18.6013 18.7133 20.3686 17.3946 21.2492C16.9186 21.5685 16.3583 21.7391 15.785 21.7392C15.3206 21.7422 14.8626 21.6301 14.4521 21.413C14.0415 21.196 13.691 20.8807 13.4319 20.4952ZM0.452087 15.5004C0.452087 24.0063 7.34688 30.8996 15.8528 30.8996C24.3588 30.8996 31.2536 24.0063 31.2536 15.5004C31.2536 6.9944 24.3588 0.0996094 15.8528 0.0996094C7.34688 0.0996094 0.452087 6.99515 0.452087 15.5004Z" fill="white"/>
</mask>
<g mask="url(#mask0_835_82188)">
<path d="M31.2536 0.0996094H0.452087V30.9011H31.2536V0.0996094Z" fill="url(#paint0_linear_835_82188)"/>
</g>
<path d="M65.3807 22.8005C64.4572 22.2786 63.6969 21.5105 63.1845 20.5817C62.6567 19.6378 62.3928 18.586 62.3928 17.4264C62.3928 16.2372 62.6492 15.1707 63.1618 14.2267C63.6562 13.3021 64.4025 12.5367 65.3143 12.0192C66.2357 11.4919 67.2761 11.228 68.4357 11.2275C70.1893 11.2275 71.6469 11.8965 72.8085 13.2345C72.9559 13.3914 73.037 13.5991 73.0347 13.8143C73.0347 14.1415 72.8713 14.4165 72.5446 14.6391C72.3945 14.744 72.2151 14.7989 72.032 14.7959C71.8662 14.7975 71.7022 14.7623 71.5518 14.6928C71.4013 14.6233 71.2682 14.5213 71.1619 14.3941C70.8239 14.0176 70.4096 13.7174 69.9466 13.5135C69.468 13.3196 68.955 13.2247 68.4387 13.2345C67.2942 13.2345 66.3643 13.6173 65.6491 14.3828C64.9339 15.1483 64.5772 16.1628 64.5793 17.4264C64.566 18.1741 64.7382 18.9134 65.0806 19.5782C65.4001 20.1947 65.8869 20.7087 66.4852 21.0612C67.1112 21.4242 67.8245 21.6093 68.548 21.5965C69.5583 21.5965 70.3758 21.3364 71.0006 20.8162C71.2825 20.6076 71.5575 20.5033 71.8254 20.5033C72.0357 20.5039 72.2397 20.5748 72.4052 20.7046C72.6871 20.9423 72.8284 21.2097 72.8289 21.5068C72.8276 21.6202 72.8032 21.7322 72.7572 21.8359C72.7112 21.9396 72.6445 22.0329 72.5612 22.1099C71.4906 23.1056 70.1529 23.6035 68.548 23.6035C67.3734 23.6035 66.3178 23.3361 65.3814 22.8013" fill="#333333"/>
<path d="M86.1843 11.607C86.3924 11.8159 86.4964 12.0903 86.4964 12.4326V22.3801C86.5012 22.5297 86.476 22.6787 86.4224 22.8184C86.3688 22.958 86.2879 23.0856 86.1843 23.1936C86.0245 23.3566 85.8196 23.468 85.5959 23.5135C85.3723 23.5591 85.1401 23.5367 84.9293 23.4492C84.7185 23.3617 84.5387 23.2131 84.413 23.0226C84.2873 22.8321 84.2215 22.6083 84.224 22.3801V22.1313C83.7415 22.6121 83.1647 22.9879 82.5299 23.2351C81.8626 23.4978 81.1512 23.6303 80.434 23.6256C79.4076 23.6256 78.4858 23.4027 77.6685 22.9569C76.8506 22.5103 76.1834 21.8313 75.7513 21.0057C75.2908 20.1512 75.0604 19.1208 75.0599 17.9145V12.4326C75.056 12.2808 75.0825 12.1297 75.1379 11.9883C75.1933 11.8469 75.2764 11.718 75.3824 11.6093C75.4884 11.5005 75.6151 11.4141 75.7551 11.3551C75.895 11.296 76.0453 11.2656 76.1972 11.2656C76.3491 11.2656 76.4994 11.296 76.6393 11.3551C76.7793 11.4141 76.906 11.5005 77.012 11.6093C77.118 11.718 77.2011 11.8469 77.2565 11.9883C77.3119 12.1297 77.3384 12.2808 77.3345 12.4326V17.9175C77.3345 19.1238 77.658 20.0343 78.3049 20.6491C78.9517 21.2638 79.81 21.5721 80.8796 21.5741C81.4699 21.5828 82.054 21.4538 82.5857 21.1972C83.0719 20.9687 83.4883 20.6148 83.792 20.1718C84.0806 19.7438 84.232 19.2381 84.2263 18.722V12.4326C84.2197 12.28 84.2451 12.1277 84.301 11.9855C84.3568 11.8433 84.4418 11.7144 84.5505 11.607C84.6584 11.5034 84.786 11.4224 84.9257 11.3688C85.0654 11.3152 85.2144 11.2901 85.364 11.2949C85.7053 11.2949 85.9802 11.399 86.1888 11.607" fill="#333333"/>
<path d="M90.5653 22.9898C90.0367 22.6219 89.6231 22.1116 89.3726 21.5182C89.0819 20.8466 88.9374 20.1208 88.9489 19.389V7.21438C88.945 7.06556 88.971 6.91747 89.0253 6.77884C89.0795 6.64021 89.161 6.51386 89.2649 6.40723C89.3688 6.3006 89.493 6.21585 89.6302 6.15799C89.7673 6.10012 89.9147 6.07031 90.0636 6.07031C90.2125 6.07031 90.3598 6.10012 90.497 6.15799C90.6342 6.21585 90.7584 6.3006 90.8622 6.40723C90.9661 6.51386 91.0476 6.64021 91.1019 6.77884C91.1562 6.91747 91.1822 7.06556 91.1783 7.21438V19.389C91.1783 19.9389 91.2826 20.3913 91.4912 20.7461C91.6998 21.101 91.9672 21.2792 92.2934 21.2807H92.8513C92.9876 21.2762 93.1233 21.3019 93.2486 21.356C93.3738 21.4101 93.4856 21.4912 93.5758 21.5935C93.7668 21.8161 93.8664 22.1027 93.8548 22.3957C93.8561 22.5542 93.8181 22.7105 93.7441 22.8506C93.6702 22.9908 93.5626 23.1104 93.4311 23.1987C93.1486 23.4068 92.7844 23.5108 92.3386 23.5108H92.2934C91.6768 23.5169 91.0733 23.3326 90.5653 22.9831" fill="#333333"/>
<path d="M100.845 21.5965C101.036 21.8191 101.135 22.1057 101.124 22.3987C101.127 22.5517 101.096 22.7036 101.032 22.8427C100.969 22.9819 100.874 23.1046 100.756 23.2017C100.511 23.4097 100.194 23.5138 99.8079 23.5138H99.4068C98.7006 23.5201 98.0074 23.3227 97.4104 22.9453C96.8078 22.5653 96.3189 22.0298 95.9953 21.3952C95.6461 20.7125 95.4698 19.9544 95.4818 19.1877V13.6839H94.4565C94.1785 13.6961 93.9067 13.6002 93.698 13.4163C93.6044 13.3321 93.5301 13.2287 93.4801 13.1131C93.4301 12.9976 93.4057 12.8726 93.4085 12.7468C93.4027 12.614 93.4255 12.4816 93.4755 12.3586C93.5254 12.2355 93.6013 12.1246 93.698 12.0335C93.9067 11.8496 94.1785 11.7537 94.4565 11.7659H95.4818V8.55258C95.4818 8.40615 95.5107 8.26115 95.5667 8.12586C95.6227 7.99057 95.7049 7.86764 95.8084 7.7641C95.912 7.66055 96.0349 7.57842 96.1702 7.52238C96.3055 7.46634 96.4505 7.4375 96.5969 7.4375C96.7433 7.4375 96.8883 7.46634 97.0236 7.52238C97.1589 7.57842 97.2818 7.66055 97.3854 7.7641C97.4889 7.86764 97.5711 7.99057 97.6271 8.12586C97.6831 8.26115 97.712 8.40615 97.712 8.55258V11.7629H99.6066C99.8846 11.7506 100.156 11.8465 100.365 12.0305C100.462 12.1215 100.538 12.2324 100.588 12.3555C100.638 12.4785 100.661 12.611 100.655 12.7437C100.658 12.8696 100.633 12.9946 100.583 13.1102C100.533 13.2257 100.459 13.3291 100.365 13.4132C100.156 13.5972 99.8846 13.6932 99.6066 13.6809H97.712V19.1847C97.712 19.7793 97.8756 20.2774 98.2028 20.679C98.53 21.0806 98.9321 21.2816 99.4091 21.2821H100.163C100.292 21.2811 100.42 21.3085 100.537 21.3625C100.654 21.4164 100.758 21.4956 100.842 21.5943" fill="#333333"/>
<path d="M103.119 8.89795C102.883 8.65842 102.738 8.34482 102.708 8.01043C102.678 7.67605 102.764 7.3415 102.952 7.0636C103.141 6.78571 103.42 6.58161 103.742 6.48599C104.063 6.39036 104.408 6.4091 104.718 6.53901C105.028 6.66893 105.283 6.90202 105.44 7.19869C105.597 7.49535 105.647 7.8373 105.581 8.16644C105.514 8.49558 105.336 8.79162 105.076 9.00427C104.816 9.21692 104.491 9.33306 104.155 9.33298C103.962 9.33505 103.77 9.29752 103.592 9.2227C103.414 9.14789 103.252 9.03737 103.119 8.89795ZM103.345 23.1904C103.238 23.0842 103.154 22.9571 103.099 22.8172C103.043 22.6773 103.017 22.5274 103.021 22.3769V12.4543C103.015 12.3019 103.04 12.1497 103.096 12.0077C103.151 11.8656 103.236 11.7368 103.345 11.6295C103.453 11.526 103.58 11.445 103.72 11.3915C103.86 11.3379 104.009 11.3127 104.158 11.3173C104.501 11.3173 104.775 11.4214 104.984 11.6295C105.089 11.7386 105.171 11.868 105.225 12.0098C105.278 12.1516 105.303 12.3028 105.296 12.4543V22.3799C105.301 22.5295 105.275 22.6784 105.222 22.8181C105.168 22.9578 105.087 23.0854 104.984 23.1934C104.761 23.4012 104.469 23.5168 104.164 23.5168C103.86 23.5168 103.567 23.4012 103.345 23.1934" fill="#333333"/>
<path d="M118.247 11.8411C118.351 11.996 118.405 12.1787 118.403 12.3651C118.4 12.5131 118.361 12.6582 118.292 12.7888L113.565 22.7567C113.342 23.2472 113 23.4925 112.539 23.4925C112.319 23.5018 112.101 23.4437 111.915 23.3259C111.751 23.2143 111.603 23.0246 111.468 22.7567L106.746 12.7888C106.685 12.6637 106.654 12.5261 106.656 12.3869C106.656 11.9848 106.864 11.6803 107.281 11.4732C107.425 11.3962 107.586 11.3578 107.748 11.3616C107.93 11.3624 108.107 11.4124 108.262 11.5063C108.425 11.6041 108.556 11.7475 108.639 11.9188L112.519 20.2807L116.354 11.9188C116.439 11.7448 116.575 11.6009 116.744 11.5063C116.91 11.411 117.099 11.3611 117.29 11.3616C117.468 11.3581 117.643 11.3963 117.803 11.4732C117.983 11.5516 118.138 11.6791 118.249 11.8411" fill="#333333"/>
<path d="M121.414 22.8113C120.492 22.3004 119.734 21.5389 119.227 20.6151C118.707 19.6787 118.446 18.6159 118.447 17.4267C118.447 16.2204 118.707 15.15 119.227 14.2156C119.734 13.292 120.492 12.5309 121.414 12.0202C122.35 11.4924 123.413 11.2285 124.602 11.2285C125.776 11.2285 126.828 11.4924 127.757 12.0202C128.675 12.5355 129.432 13.2956 129.944 14.2156C130.472 15.152 130.735 16.2224 130.735 17.4267C130.735 18.6164 130.475 19.6792 129.955 20.6151C129.451 21.5365 128.697 22.2976 127.781 22.8113C126.852 23.3391 125.793 23.6032 124.604 23.6037C123.414 23.6042 122.352 23.3401 121.415 22.8113M126.644 21.0614C127.242 20.7089 127.729 20.1949 128.048 19.5784C128.391 18.9136 128.563 18.1743 128.55 17.4267C128.562 16.6755 128.39 15.9328 128.048 15.2636C127.731 14.6428 127.244 14.1249 126.644 13.7701C126.021 13.4191 125.318 13.2348 124.604 13.2348C123.889 13.2348 123.186 13.4191 122.563 13.7701C121.961 14.1265 121.471 14.6437 121.146 15.2636C120.797 15.9305 120.621 16.6741 120.633 17.4267C120.62 18.1757 120.796 18.9159 121.146 19.5784C121.472 20.1937 121.962 20.7069 122.562 21.0614C123.185 21.4123 123.887 21.5967 124.602 21.5967C125.317 21.5967 126.02 21.4123 126.642 21.0614" fill="#333333"/>
<path d="M53.764 12.773C54.5436 13.6038 54.9337 14.7634 54.9342 16.2516V22.5093C54.9389 22.6561 54.9143 22.8024 54.8617 22.9395C54.8092 23.0766 54.7297 23.2018 54.6281 23.3078C54.4714 23.4686 54.2702 23.5788 54.0503 23.624C53.8304 23.6693 53.6019 23.6475 53.3945 23.5615C53.1872 23.4755 53.0103 23.3292 52.887 23.1417C52.7636 22.9541 52.6993 22.7338 52.7025 22.5093V16.2516C52.7025 15.362 52.4801 14.6875 52.0353 14.2281C51.5904 13.7687 50.9961 13.5387 50.2522 13.5382C49.4937 13.5382 48.87 13.8008 48.3809 14.3261C47.8918 14.8513 47.6476 15.5223 47.6481 16.3391V22.5093C47.6528 22.6561 47.6282 22.8024 47.5757 22.9395C47.5231 23.0766 47.4436 23.2018 47.342 23.3078C47.1854 23.4686 46.9841 23.5788 46.7642 23.624C46.5443 23.6693 46.3158 23.6475 46.1085 23.5615C45.9011 23.4755 45.7243 23.3292 45.6009 23.1417C45.4775 22.9541 45.4132 22.7338 45.4164 22.5093V16.2516C45.4164 15.362 45.194 14.6875 44.7492 14.2281C44.3043 13.7687 43.71 13.5387 42.9661 13.5382C42.1926 13.5382 41.5618 13.8008 41.0737 14.3261C40.5857 14.8513 40.3411 15.5223 40.3401 16.3391V22.5093C40.3449 22.6561 40.3203 22.8024 40.2677 22.9395C40.2151 23.0766 40.1357 23.2018 40.034 23.3078C39.8774 23.4686 39.6761 23.5788 39.4562 23.624C39.2363 23.6693 39.0079 23.6475 38.8005 23.5615C38.5931 23.4755 38.4163 23.3292 38.2929 23.1417C38.1696 22.9541 38.1053 22.7338 38.1085 22.5093V12.773C38.1021 12.6233 38.127 12.474 38.1817 12.3346C38.2363 12.1951 38.3195 12.0687 38.4259 11.9632C38.5318 11.8615 38.657 11.7819 38.7941 11.7292C38.9312 11.6766 39.0775 11.6518 39.2243 11.6564C39.3687 11.6509 39.5127 11.6742 39.6479 11.7249C39.7832 11.7757 39.907 11.8528 40.0122 11.9519C40.2201 12.1574 40.338 12.4369 40.3401 12.7292C40.7276 12.3446 41.1893 12.0429 41.6972 11.8426C42.24 11.6271 42.8194 11.5185 43.4034 11.5229C44.0973 11.5129 44.7836 11.6679 45.4058 11.9753C45.9921 12.2713 46.4928 12.7126 46.8602 13.257C47.3028 12.7138 47.8644 12.2797 48.5015 11.9881C49.1874 11.6752 49.9341 11.5181 50.688 11.5282C51.9576 11.5282 52.9825 11.9441 53.7625 12.776" fill="#333333"/>
<mask id="mask1_835_82188" style="mask-type:luminance" maskUnits="userSpaceOnUse" x="57" y="16" width="4" height="4">
<path d="M57.821 16.8634C57.6791 17.0008 57.5669 17.1658 57.4913 17.3483C57.4157 17.5307 57.3783 17.7267 57.3814 17.9242C57.3812 18.2172 57.4681 18.5037 57.6311 18.7472C57.7941 18.9906 58.0259 19.1801 58.2969 19.2915C58.568 19.4029 58.866 19.4311 59.1531 19.3727C59.4402 19.3142 59.7035 19.1716 59.9094 18.9631C60.1861 18.6831 60.3404 18.3047 60.3384 17.9111C60.3365 17.5174 60.1783 17.1406 59.8988 16.8634C59.7639 16.7243 59.6024 16.6137 59.4239 16.5382C59.2455 16.4627 59.0537 16.4238 58.8599 16.4238C58.6661 16.4238 58.4743 16.4627 58.2958 16.5382C58.1174 16.6137 57.9559 16.7243 57.821 16.8634Z" fill="white"/>
</mask>
<g mask="url(#mask1_835_82188)">
<path d="M60.3385 16.4238H57.3815V19.4019H60.3385V16.4238Z" fill="url(#paint1_linear_835_82188)"/>
</g>
</g>
<defs>
<linearGradient id="paint0_linear_835_82188" x1="0.484507" y1="15.5185" x2="31.2453" y2="15.5185" gradientUnits="userSpaceOnUse">
<stop stop-color="#0A8BBB"/>
<stop offset="1" stop-color="#0E8B78"/>
</linearGradient>
<linearGradient id="paint1_linear_835_82188" x1="58.3283" y1="17.8038" x2="61.2886" y2="17.8038" gradientUnits="userSpaceOnUse">
<stop stop-color="#0A8BBB"/>
<stop offset="1" stop-color="#0E8B78"/>
</linearGradient>
<clipPath id="clip0_835_82188">
<rect width="131" height="31" fill="white"/>
</clipPath>
</defs>
</svg>
