<svg width="48" height="48" viewBox="0 0 48 48" fill="none" xmlns="http://www.w3.org/2000/svg">
<path d="M47.8919 2.05839C48.0011 1.7858 48.0278 1.48718 47.9688 1.19955C47.9098 0.911924 47.7676 0.647936 47.56 0.440317C47.3524 0.232697 47.0884 0.090577 46.8008 0.0315746C46.5132 -0.0274277 46.2145 -0.000717219 45.9419 0.108395L2.30095 17.5654C1.91662 17.7192 1.58218 17.9761 1.33444 18.3078C1.08671 18.6395 0.935275 19.0331 0.896816 19.4452C0.858358 19.8574 0.934363 20.2722 1.11647 20.644C1.29857 21.0158 1.57971 21.3301 1.92895 21.5524L16.9139 31.0864L21.5069 38.3044C21.7239 38.6319 22.0606 38.8613 22.4448 38.9432C22.829 39.025 23.23 38.9529 23.5617 38.7423C23.8933 38.5317 24.1291 38.1994 24.2183 37.8169C24.3075 37.4343 24.2431 37.032 24.0389 36.6964L19.9109 30.2104L42.3929 7.72839L36.7079 21.9424C36.6298 22.1261 36.5892 22.3235 36.5884 22.5231C36.5875 22.7227 36.6266 22.9205 36.7031 23.1048C36.7797 23.2892 36.8923 23.4563 37.0343 23.5966C37.1764 23.7369 37.345 23.8474 37.5302 23.9216C37.7155 23.9959 37.9137 24.0324 38.1133 24.0291C38.3129 24.0258 38.5098 23.9827 38.6925 23.9023C38.8752 23.8219 39.04 23.7058 39.1773 23.5609C39.3146 23.416 39.4215 23.2452 39.4919 23.0584L47.8919 2.05839ZM40.2719 5.60739L17.7899 28.0894L4.77295 19.8064L40.2719 5.60739Z" fill="#242828" fill-opacity="0.56"/>
<path d="M48 37.5C48 40.2848 46.8938 42.9555 44.9246 44.9246C42.9555 46.8938 40.2848 48 37.5 48C34.7152 48 32.0445 46.8938 30.0754 44.9246C28.1062 42.9555 27 40.2848 27 37.5C27 34.7152 28.1062 32.0445 30.0754 30.0754C32.0445 28.1062 34.7152 27 37.5 27C40.2848 27 42.9555 28.1062 44.9246 30.0754C46.8938 32.0445 48 34.7152 48 37.5ZM42.021 32.463C41.852 32.3617 41.6647 32.2947 41.4698 32.2658C41.2749 32.237 41.0762 32.2467 40.8851 32.2947C40.694 32.3426 40.5142 32.4277 40.356 32.5451C40.1978 32.6625 40.0642 32.81 39.963 32.979L36.453 38.829L34.812 37.188C34.5303 36.9063 34.1483 36.7481 33.75 36.7481C33.3517 36.7481 32.9697 36.9063 32.688 37.188C32.4063 37.4697 32.2481 37.8517 32.2481 38.25C32.2481 38.6483 32.4063 39.0303 32.688 39.312L35.01 41.631C35.2517 41.8732 35.5454 42.057 35.8688 42.1686C36.1923 42.2801 36.5369 42.3165 36.8765 42.2748C37.216 42.2332 37.5417 42.1146 37.8285 41.9282C38.1154 41.7418 38.356 41.4924 38.532 41.199L42.537 34.521C42.6383 34.352 42.7053 34.1647 42.7342 33.9698C42.763 33.7749 42.7533 33.5762 42.7053 33.3851C42.6574 33.194 42.5723 33.0142 42.4549 32.856C42.3375 32.6978 42.19 32.5642 42.021 32.463Z" fill="#242828" fill-opacity="0.56"/>
</svg>
