<svg width="16" height="16" viewBox="0 0 16 16" fill="none" xmlns="http://www.w3.org/2000/svg">
<path d="M3.875 5C4.49632 5 5 4.49632 5 3.875C5 3.25368 4.49632 2.75 3.875 2.75C3.25368 2.75 2.75 3.25368 2.75 3.875C2.75 4.49632 3.25368 5 3.875 5Z" fill="#008E8F"/>
<path d="M15.0575 7.5575L8.435 0.935C8.1575 0.6575 7.775 0.5 7.3775 0.5H2C1.175 0.5 0.5 1.175 0.5 2V7.3775C0.5 7.775 0.6575 8.1575 0.9425 8.435L7.565 15.0575C8.15 15.6425 9.1025 15.6425 9.6875 15.0575L15.065 9.68C15.65 9.095 15.65 8.15 15.0575 7.5575ZM8.6225 14L2 7.3775V2H7.3775L14 8.6225L8.6225 14Z" fill="#008E8F"/>
</svg>
