<svg width="20" height="14" viewBox="0 0 20 14" fill="none" xmlns="http://www.w3.org/2000/svg">
<path d="M12.5 6.99992C14.3417 6.99992 15.8334 5.50825 15.8334 3.66659C15.8334 1.82492 14.3417 0.333252 12.5 0.333252C10.6584 0.333252 9.16671 1.82492 9.16671 3.66659C9.16671 5.50825 10.6584 6.99992 12.5 6.99992ZM12.5 1.99992C13.4167 1.99992 14.1667 2.74992 14.1667 3.66659C14.1667 4.58325 13.4167 5.33325 12.5 5.33325C11.5834 5.33325 10.8334 4.58325 10.8334 3.66659C10.8334 2.74992 11.5834 1.99992 12.5 1.99992ZM12.5 8.66658C10.275 8.66658 5.83337 9.78325 5.83337 11.9999V13.6666H19.1667V11.9999C19.1667 9.78325 14.725 8.66658 12.5 8.66658ZM7.50004 11.9999C7.68337 11.3999 10.2584 10.3333 12.5 10.3333C14.75 10.3333 17.3334 11.4083 17.5 11.9999H7.50004ZM5.00004 9.49992V6.99992H7.50004V5.33325H5.00004V2.83325H3.33337V5.33325H0.833374V6.99992H3.33337V9.49992H5.00004Z" fill="#008E8F"/>
</svg>
