<svg width="18" height="24" viewBox="0 0 18 24" fill="none" xmlns="http://www.w3.org/2000/svg">
<path d="M6.19509 0.629233C1.75516 1.65546 -0.698392 7.50884 0.726906 13.677C2.15206 19.8461 6.92339 24.0303 11.3632 23.0049C15.81 21.9774 18.2545 16.1169 16.8313 9.95718C15.4062 3.78804 10.6349 -0.396142 6.19509 0.629233ZM2.46277 13.2762C1.3915 8.63156 2.74977 4.25003 5.52043 2.77843C4.53364 6.86806 5.6372 9.53812 8.08843 12.2327C9.31462 13.5803 11.6766 15.923 10.101 21.3695C6.87229 21.4644 3.56845 18.0609 2.46247 13.2764L2.46277 13.2762ZM15.0953 10.358C16.1633 14.9823 14.8217 19.3485 12.0737 20.8386C13.0754 16.3071 11.8024 13.6658 9.40695 11.0333C7.26392 8.67866 6.1916 6.35589 7.51645 2.26505C10.7262 2.21311 13.9964 5.60307 15.0951 10.3578L15.0953 10.358Z" fill="#242828" fill-opacity="0.56"/>
</svg>
