<svg width="32" height="31" viewBox="0 0 32 31" fill="none" xmlns="http://www.w3.org/2000/svg">
<mask id="mask0_169_48436" style="mask-type:luminance" maskUnits="userSpaceOnUse" x="0" y="0" width="32" height="31">
<path d="M4.91096 18.6529C4.90223 18.0687 5.06689 17.4952 5.38411 17.0046C5.70134 16.5141 6.15689 16.1286 6.69317 15.897C7.22944 15.6653 7.82237 15.5979 8.39697 15.7032C8.97158 15.8084 9.50207 16.0817 9.92136 16.4885C10.3407 16.8953 10.6299 17.4172 10.7526 17.9883C10.8753 18.5595 10.8259 19.1542 10.6106 19.6973C10.3954 20.2403 10.0239 20.7074 9.54323 21.0393C9.06255 21.3713 8.49424 21.5533 7.91013 21.5623H7.86414C7.08854 21.562 6.34417 21.2568 5.79166 20.7124C5.23915 20.1681 4.92283 19.4284 4.91096 18.6529ZM21.5504 20.7481C21.2383 20.2812 21.0745 19.7309 21.0807 19.1693C21.0717 18.0919 21.3069 17.1533 20.6872 16.2237C20.0674 15.294 19.1084 15.1531 18.117 14.7316C17.5945 14.5233 17.1476 14.1613 16.8353 13.6934C15.9683 12.3951 16.3339 10.6279 17.6526 9.74731C18.9712 8.8667 20.7437 9.20447 21.6107 10.5012C21.9232 10.9677 22.0872 11.5178 22.0812 12.0792C22.0903 13.1566 21.855 14.0953 22.4748 15.0249C23.0945 15.9545 24.0535 16.0962 25.0457 16.5169C25.5669 16.7261 26.0128 17.0877 26.3251 17.5544C27.1922 18.8534 26.8265 20.6199 25.5079 21.5005C25.0322 21.8202 24.4721 21.991 23.899 21.9913C23.4354 21.9936 22.9784 21.8813 22.5687 21.6644C22.159 21.4475 21.8092 21.1327 21.5504 20.7481ZM13.432 20.4947C13.1199 20.0281 12.9562 19.4781 12.9623 18.9167C12.9532 17.8386 13.1885 16.9007 12.5687 15.9703C11.949 15.04 10.99 14.8997 9.99779 14.4783C9.4768 14.2691 9.0313 13.9072 8.71987 13.4401C7.85208 12.1418 8.21849 10.3746 9.53714 9.49398C10.8558 8.61338 12.6283 8.9519 13.4953 10.2479C13.808 10.7143 13.9721 11.2645 13.9658 11.8259C13.9748 12.9033 13.7396 13.842 14.3593 14.7723C14.9791 15.7027 15.9381 15.8429 16.9295 16.2636C17.4519 16.4721 17.8988 16.8341 18.2112 17.3018C19.079 18.6008 18.7134 20.3681 17.3947 21.2487C16.9186 21.568 16.3583 21.7386 15.785 21.7387C15.3206 21.7417 14.8627 21.6296 14.4521 21.4126C14.0415 21.1955 13.6911 20.8802 13.432 20.4947ZM0.452148 15.4999C0.452148 24.0058 7.34694 30.8991 15.8529 30.8991C24.3589 30.8991 31.2537 24.0058 31.2537 15.4999C31.2537 6.99391 24.3589 0.0991211 15.8529 0.0991211C7.34694 0.0991211 0.452148 6.99467 0.452148 15.4999Z" fill="white"/>
</mask>
<g mask="url(#mask0_169_48436)">
<path d="M31.2537 0.0991211H0.452148V30.9006H31.2537V0.0991211Z" fill="url(#paint0_linear_169_48436)"/>
</g>
<defs>
<linearGradient id="paint0_linear_169_48436" x1="0.484568" y1="15.518" x2="31.2454" y2="15.518" gradientUnits="userSpaceOnUse">
<stop stop-color="#0A8BBB"/>
<stop offset="1" stop-color="#0E8B78"/>
</linearGradient>
</defs>
</svg>
